# xmcd
#
# Track frame offsets:
#	150
#	14415
#	30076
#	43778
#	60938
#	79227
#	93366
#	105107
#	126497
#	139371
#	153150
#	169707
#	186591
#
# Disc length: 2661 seconds
#
# Revision: 0
# Processed by: cddbd v1.5.1PL0 Copyright (c) Steve Scherf et al.
# Submitted via: audiograbber 1.83.01
#
DISCID=9f0a630d
DTITLE=ALTURA DE LOS ANDES - ROMANCE
DYEAR=1900
DGENRE=
TTITLE0=EL RELOJ
TTITLE1=LA BARCA
TTITLE2=NEGUE
TTITLE3=HISTORIA DE UN AMOR
TTITLE4=INOLVIDABLE
TTITLE5=SABOR A MI
TTITLE6=AS ROSAS NÃO FALAM
TTITLE7=BESAME MUCHO
TTITLE8=PERFIDEA
TTITLE9=A VOLTA DO BOEMIO
TTITLE10=USTED
TTITLE11=EL DIA QUE ME QUIERAS
TTITLE12=SOLAMENTE UNA VEZ
EXTD=
EXTT0=
EXTT1=
EXTT2=
EXTT3=
EXTT4=
EXTT5=
EXTT6=
EXTT7=
EXTT8=
EXTT9=
EXTT10=
EXTT11=
EXTT12=
PLAYORDER=
